<?xml version="1.0" encoding="utf-8"?>
<!-- Generator: Adobe Illustrator 16.0.0, SVG Export Plug-In . SVG Version: 6.00 Build 0)  -->
<!DOCTYPE svg PUBLIC "-//W3C//DTD SVG 1.1//EN" "http://www.w3.org/Graphics/SVG/1.1/DTD/svg11.dtd">
<svg version="1.1" id="Layer_1" xmlns="http://www.w3.org/2000/svg" xmlns:xlink="http://www.w3.org/1999/xlink" x="0px" y="0px"
	 width="152px" height="145.044px" viewBox="0 0 152 145.044" enable-background="new 0 0 152 145.044" xml:space="preserve">
<g>
	<path fill="#FFFFFF" d="M111.334,39.249v12.655c13.469,0,24.388,10.919,24.388,24.388s-10.919,24.388-24.388,24.388v12.655
		c20.458,0,37.043-16.585,37.043-37.043S131.792,39.249,111.334,39.249z"/>
	<path fill="#FFFFFF" d="M111.334,63.582c-4.728,0-8.845,2.588-11.034,6.419H80.816L61.846,3.435L45.148,94.768l-5.814-24.767h-36
		v12.581h24.162l18.859,59.462l17.502-86.505l6.144,27.043H100.3c2.189,3.831,6.306,6.419,11.034,6.419
		c7.019,0,12.709-5.69,12.709-12.709S118.354,63.582,111.334,63.582z"/>
</g>
</svg>
