<?xml version="1.0" encoding="utf-8"?>
<!-- Generator: Adobe Illustrator 16.0.0, SVG Export Plug-In . SVG Version: 6.00 Build 0)  -->
<!DOCTYPE svg PUBLIC "-//W3C//DTD SVG 1.1//EN" "http://www.w3.org/Graphics/SVG/1.1/DTD/svg11.dtd">
<svg version="1.1" id="Layer_1" xmlns="http://www.w3.org/2000/svg" xmlns:xlink="http://www.w3.org/1999/xlink" x="0px" y="0px"
	 width="58.625px" height="85.5px" viewBox="0 0 58.625 85.5" enable-background="new 0 0 58.625 85.5" xml:space="preserve">
<g>
	<path fill="#FFFFFF" d="M47.635,20.89V5.85h2.256c1.38,0,2.499-1.12,2.499-2.499c0-1.38-1.118-2.498-2.499-2.498H10.574
		c-1.38,0-2.498,1.118-2.498,2.498c0,1.379,1.118,2.499,2.498,2.499h2.631v15.025c-5.377,0.143-9.692,4.606-9.692,10.094v43.337
		c0,5.579,4.459,10.101,9.959,10.101h33.519c5.5,0,9.959-4.522,9.959-10.101V30.969C56.951,25.609,52.835,21.227,47.635,20.89z
		 M18.092,5.85h24.656v15.016H32.647v-4.862h2.557c1.409,0,2.552-1.143,2.552-2.552c0-1.409-1.143-2.552-2.552-2.552h-9.885
		c-1.409,0-2.552,1.143-2.552,2.552c0,1.409,1.143,2.552,2.552,2.552h2.441v4.862h-9.668V5.85z M52.281,73.872
		c0,3.239-2.626,5.865-5.865,5.865H14.048c-3.239,0-5.865-2.626-5.865-5.865v-0.843h44.098V73.872z M52.281,68.14H8.183V37.076
		h44.098V68.14z M52.281,32.189H8.183v-0.786c0-3.239,2.626-5.865,5.865-5.865h32.368c3.239,0,5.865,2.626,5.865,5.865V32.189z"/>
	<path fill="#FFFFFF" d="M30.42,63.252c10.427-1.847,6.734-10.616,6.734-10.616s-1.52-2.635-3.475-6.81
		c-1.956-4.175-3.259-3.754-3.259-3.754s-1.303-0.421-3.257,3.754c-1.957,4.175-3.477,6.81-3.477,6.81S19.993,61.406,30.42,63.252z
		 M27.876,54.626c0,0,0.574-0.995,1.313-2.572c0.739-1.578,1.23-1.419,1.23-1.419s0.492-0.158,1.23,1.419
		c0.739,1.577,1.313,2.572,1.313,2.572s1.396,3.313-2.543,4.01C26.48,57.939,27.876,54.626,27.876,54.626z"/>
</g>
</svg>
