<?xml version="1.0" encoding="utf-8"?>
<!-- Generator: Adobe Illustrator 16.0.0, SVG Export Plug-In . SVG Version: 6.00 Build 0)  -->
<!DOCTYPE svg PUBLIC "-//W3C//DTD SVG 1.1//EN" "http://www.w3.org/Graphics/SVG/1.1/DTD/svg11.dtd">
<svg version="1.1" id="Layer_1" xmlns="http://www.w3.org/2000/svg" xmlns:xlink="http://www.w3.org/1999/xlink" x="0px" y="0px"
	 width="117.25px" height="85.5px" viewBox="0 0 117.25 85.5" enable-background="new 0 0 117.25 85.5" xml:space="preserve">
<g>
	<path fill="#FFFFFF" d="M111.092,30.408c-0.643-0.741-1.304-1.456-1.973-2.159l-6.667,5.783c-2.647-2.577-5.526-4.915-8.587-7.005
		l4.073-6.13c-0.791-0.566-1.588-1.124-2.405-1.667s-1.641-1.062-2.467-1.57l-4.18,6.291c-3.243-1.804-6.655-3.334-10.213-4.558
		l1.879-6.846c-0.927-0.29-1.86-0.57-2.806-0.83S75.854,11.224,74.911,11l-1.851,6.744c-3.94-0.959-8.021-1.557-12.211-1.746V9.136
		c-0.97-0.031-1.944-0.052-2.925-0.052s-1.955,0.021-2.925,0.052v6.86c-3.698,0.167-7.309,0.662-10.817,1.433l-1.098-6.946
		c-0.964,0.118-1.93,0.247-2.898,0.4c-0.969,0.153-1.927,0.329-2.879,0.514l1.195,7.559c-3.862,1.234-7.563,2.824-11.066,4.735
		l-3.601-6.03l-4.972-8.326l-5.021,2.999l5.186,8.685l3.407,5.705c-2.847,1.91-5.542,4.029-8.042,6.359l-6.389-6.389
		c-0.714,0.658-1.422,1.327-2.116,2.021c-0.693,0.693-1.362,1.401-2.02,2.116l6.43,6.43l4.404,4.404l0.242-0.242l3.894-3.894
		l-0.034-0.034c2.131-1.973,4.419-3.776,6.83-5.412L45.07,64.631c-3.785,2.81-6.504,6.801-7.806,11.619h42.472
		C77.207,66.889,68.66,60,58.5,60c-1.036,0-2.049,0.089-3.046,0.228L62.35,71.56l-4.185,2.452l-7.789-11.905L30.635,29.048
		c8.124-4.383,17.41-6.885,27.289-6.885c15.441,0,29.452,6.085,39.796,15.975c1.412,1.349,2.755,2.768,4.023,4.253l4.711-4.087
		l6.498-5.637C112.349,31.905,111.734,31.149,111.092,30.408z"/>
	<path fill="#FFFFFF" d="M58.573,45.77h-0.109c-0.368-0.994-0.847-1.987-1.435-3.079l-3.497-6.753h-3.459l6.772,12.017h3.091
		l6.993-12.017h-3.386l-3.459,6.753C59.493,43.783,58.978,44.776,58.573,45.77z"/>
</g>
</svg>
