
<svg version="1.1" id="Layer_1" xmlns="http://www.w3.org/2000/svg" xmlns:xlink="http://www.w3.org/1999/xlink" x="0px" y="0px"
	 width="130" height="130" viewBox="0 0 100.723 67.288" enable-background="new 0 0 100.723 67.288"
	 xml:space="preserve">
<g>
	<path fill="#FFFFFF" d="M18.533,15.115c0.655,0.641,1.51,0.828,1.91,0.419l3.339-3.415c0.4-0.41,0.193-1.26-0.462-1.9L12.251,2.293
		c-0.655-0.64-1.51-0.828-1.91-0.419L9.899,2.327c-0.4,0.409-0.193,1.26,0.462,1.9L18.533,15.115z"/>
	<path fill="#FFFFFF" d="M18.806,21.963l0.352-4.763c0.042-0.571-0.665-1.088-1.579-1.155L4.009,17.12
		c-0.913-0.067-1.688,0.34-1.73,0.911l-0.046,0.631C2.19,19.233,2.896,19.75,3.81,19.817l13.266,3.057
		C17.989,22.942,18.764,22.534,18.806,21.963z"/>
	<path fill="#FFFFFF" d="M22.364,27.796l-2.73-3.919c-0.328-0.469-1.203-0.425-1.954,0.099l-9.854,9.392
		c-0.751,0.523-1.095,1.329-0.769,1.798l0.362,0.519c0.327,0.47,1.201,0.425,1.953-0.099l12.224-5.992
		C22.348,29.071,22.692,28.266,22.364,27.796z"/>
	<path fill="#FFFFFF" d="M28.435,30.265l-4.666-1.022c-0.559-0.122-1.171,0.505-1.366,1.399l-0.854,13.586
		c-0.196,0.895,0.098,1.719,0.657,1.842l0.618,0.135c0.559,0.123,1.17-0.504,1.366-1.399l4.901-12.7
		C29.289,31.212,28.995,30.387,28.435,30.265z"/>
	<path fill="#FFFFFF" d="M36.347,27.917c-0.401-0.824-1.144-1.288-1.658-1.036l-4.292,2.094c-0.514,0.251-0.605,1.123-0.203,1.945
		l7.763,11.183c0.401,0.823,1.144,1.287,1.658,1.037l0.569-0.278c0.514-0.251,0.604-1.122,0.203-1.945L36.347,27.917z"/>
	<path fill="#FFFFFF" d="M97.649,38.625L81.064,22.26c-0.28-0.294-0.728-0.323-0.997-0.065l-0.543,0.367
		c-0.022,0.006-0.048,0.004-0.068,0.016l-7.843,4.516l-6.854-7.176c-0.001,0-0.001-0.001-0.002-0.001l-0.526-0.551
		c-0.243-0.255-0.646-0.265-0.902-0.021l-4.154,3.968c0.169-0.649-0.11-1.38-0.744-1.781l-17.021-9.59
		c-0.352-0.224-0.749-0.3-1.122-0.256c-0.363-0.05-0.807,0.024-1.239,0.238l-11.147,7.814c-0.821,0.405-1.282,1.149-1.029,1.663
		l0.28,0.568c0.253,0.513,1.125,0.599,1.946,0.193l12.726-4.018L52.5,29.687l-0.474,0.453c-0.094,0.019-0.178,0.06-0.246,0.125
		l-3.561,3.402c-0.119,0.113-0.156,0.284-0.141,0.469c-0.017,0.178,0.034,0.36,0.167,0.5l0.071,0.074
		c0.036,0.049,0.062,0.1,0.105,0.146l22.533,23.593c0.001,0.001,0.002,0.001,0.003,0.002l0.952,0.998
		c0.253,0.266,0.665,0.284,0.922,0.04l4.925-4.703l5.739,6.011c0.128,0.13,0.503-0.022,0.84-0.344l4.445-4.246
		c0.337-0.322,0.508-0.689,0.381-0.821l-5.74-6.01l4.491-4.29c0.254-0.245,0.255-0.657,0.002-0.923l-0.699-0.732
		c0,0-0.001-0.001-0.001-0.001L75.68,31.351l4.18-2.251l13.243,13.867c0.281,0.294,0.729,0.323,1,0.065l3.567-3.408
		C97.939,39.367,97.931,38.919,97.649,38.625z M79.558,44.513l-6.921,6.61l-7.712-8.074l3.032-2.896
		c0.111-0.107,0.116-0.285,0.009-0.397l-1.417-1.484c-0.107-0.112-0.287-0.117-0.398-0.009l-3.032,2.896l-2.343-2.453l2.873-2.744
		c0.114-0.107,0.116-0.285,0.009-0.397L62.24,34.08c-0.107-0.112-0.284-0.117-0.396-0.009l-2.874,2.744l-2.546-2.667l6.921-6.61
		L79.558,44.513z"/>
</g>
</svg>
